<svg id="svg" version="1.1" xmlns="http://www.w3.org/2000/svg" xmlns:xlink="http://www.w3.org/1999/xlink" width="400" height="400" viewBox="0, 0, 400,400"><g id="svgg"><path id="path0" d="M197.388 79.300 C 197.286 79.575,197.156 85.740,197.101 93.000 L 197.000 106.200 184.000 106.440 C 169.073 106.716,169.407 106.670,164.468 109.136 C 154.072 114.326,147.625 131.575,147.625 154.200 C 147.625 177.214,154.294 197.112,164.656 205.022 C 168.317 207.816,167.998 207.765,182.789 207.915 C 191.435 208.002,196.359 208.200,196.689 208.474 C 197.462 209.116,197.437 266.506,196.663 267.148 C 196.287 267.460,189.625 267.624,174.363 267.697 L 152.600 267.800 152.600 276.600 L 152.600 285.400 174.363 285.503 C 189.445 285.575,196.289 285.742,196.656 286.046 C 197.061 286.383,197.211 288.655,197.293 295.743 L 197.400 305.000 205.100 305.109 L 212.800 305.217 212.800 296.182 C 212.800 290.719,212.964 286.842,213.214 286.374 C 213.612 285.630,214.213 285.600,228.914 285.596 C 248.825 285.590,250.274 285.142,255.655 277.321 C 264.707 264.163,267.532 229.727,261.391 207.400 C 261.028 206.080,260.584 204.460,260.405 203.800 C 258.530 196.895,254.402 189.215,250.565 185.495 C 247.016 182.053,246.689 182.000,229.214 182.000 C 215.941 182.000,213.979 181.922,213.426 181.369 C 212.861 180.804,212.805 177.828,212.897 153.069 L 213.000 125.400 233.600 125.200 L 254.200 125.000 254.307 115.700 L 254.415 106.400 233.850 106.400 C 215.467 106.400,213.260 106.333,213.043 105.767 C 212.909 105.419,212.800 99.209,212.800 91.967 L 212.800 78.800 205.187 78.800 C 199.464 78.800,197.529 78.924,197.388 79.300 M53.200 107.202 C 40.911 108.575,29.320 121.561,25.531 138.200 C 23.760 145.980,23.812 144.198,23.806 196.400 C 23.800 247.044,23.785 246.459,25.287 253.400 C 28.225 266.979,36.262 278.647,45.635 282.940 C 51.425 285.593,52.339 285.642,93.200 285.513 L 129.000 285.400 129.000 274.800 L 129.000 264.200 99.200 264.200 L 69.400 264.200 67.161 263.100 C 65.929 262.496,64.074 261.146,63.038 260.100 C 60.322 257.360,58.346 253.030,56.329 245.400 C 55.403 241.900,55.568 150.355,56.507 146.491 C 58.123 139.839,60.864 134.620,64.354 131.548 C 67.945 128.387,65.439 128.600,99.000 128.600 L 129.000 128.600 129.000 117.800 L 129.000 107.000 92.400 106.956 C 72.270 106.931,54.630 107.042,53.200 107.202 M196.174 125.190 L 197.200 125.580 197.200 153.376 L 197.200 181.172 196.343 181.631 C 195.775 181.935,193.717 182.035,190.243 181.928 C 182.566 181.692,180.565 180.073,177.865 171.914 C 176.959 169.176,176.646 167.677,175.617 161.154 C 174.258 152.534,175.888 138.590,179.071 131.600 C 181.565 126.122,182.645 125.462,189.580 125.178 C 192.561 125.056,195.033 124.921,195.074 124.878 C 195.115 124.835,195.610 124.976,196.174 125.190 M228.116 208.859 C 241.761 215.819,241.815 260.358,228.186 266.765 C 225.580 267.990,213.863 268.038,213.214 266.826 C 212.940 266.314,212.800 256.510,212.800 237.800 C 212.800 219.090,212.940 209.286,213.214 208.774 C 213.873 207.542,225.667 207.610,228.116 208.859 M272.893 298.500 L 273.000 309.000 324.100 309.102 L 375.200 309.203 375.200 298.602 L 375.200 288.000 323.993 288.000 L 272.787 288.000 272.893 298.500 " stroke="none" fill="#040506" fill-rule="evenodd"></path><path id="path1" d="M31.300 0.291 C 30.365 0.376,29.600 0.616,29.600 0.823 C 29.600 1.030,28.970 1.200,28.200 1.200 C 27.430 1.200,26.800 1.366,26.800 1.568 C 26.800 1.771,26.260 2.055,25.600 2.200 C 24.940 2.345,24.400 2.629,24.400 2.832 C 24.400 3.034,23.950 3.200,23.400 3.200 C 22.850 3.200,22.400 3.380,22.400 3.600 C 22.400 3.820,22.040 4.000,21.600 4.000 C 21.160 4.000,20.800 4.180,20.800 4.400 C 20.800 4.620,20.530 4.800,20.200 4.800 C 19.870 4.800,19.600 4.980,19.600 5.200 C 19.600 5.420,19.317 5.600,18.971 5.600 C 18.253 5.600,17.200 6.534,17.200 7.171 C 17.200 7.407,16.840 7.600,16.400 7.600 C 15.960 7.600,15.600 7.780,15.600 8.000 C 15.600 8.220,15.414 8.400,15.187 8.400 C 14.649 8.400,12.000 11.049,12.000 11.587 C 12.000 11.814,11.814 12.000,11.587 12.000 C 11.049 12.000,8.400 14.649,8.400 15.187 C 8.400 15.414,8.220 15.600,8.000 15.600 C 7.780 15.600,7.600 15.960,7.600 16.400 C 7.600 16.840,7.407 17.200,7.171 17.200 C 6.534 17.200,5.600 18.253,5.600 18.971 C 5.600 19.317,5.420 19.600,5.200 19.600 C 4.980 19.600,4.800 19.870,4.800 20.200 C 4.800 20.530,4.620 20.800,4.400 20.800 C 4.180 20.800,4.000 21.160,4.000 21.600 C 4.000 22.040,3.820 22.400,3.600 22.400 C 3.380 22.400,3.200 22.850,3.200 23.400 C 3.200 23.950,3.034 24.400,2.832 24.400 C 2.629 24.400,2.345 24.940,2.200 25.600 C 2.055 26.260,1.771 26.800,1.568 26.800 C 1.366 26.800,1.200 27.415,1.200 28.167 C 1.200 28.918,0.975 29.608,0.700 29.700 C -0.036 29.945,-0.036 370.055,0.700 370.300 C 0.975 370.392,1.200 371.082,1.200 371.833 C 1.200 372.585,1.366 373.200,1.568 373.200 C 1.771 373.200,2.055 373.740,2.200 374.400 C 2.345 375.060,2.629 375.600,2.832 375.600 C 3.034 375.600,3.200 376.050,3.200 376.600 C 3.200 377.150,3.380 377.600,3.600 377.600 C 3.820 377.600,4.000 377.960,4.000 378.400 C 4.000 378.840,4.180 379.200,4.400 379.200 C 4.620 379.200,4.800 379.470,4.800 379.800 C 4.800 380.130,4.980 380.400,5.200 380.400 C 5.420 380.400,5.600 380.683,5.600 381.029 C 5.600 381.747,6.534 382.800,7.171 382.800 C 7.407 382.800,7.600 383.131,7.600 383.536 C 7.600 384.339,10.848 388.000,11.560 388.000 C 11.802 388.000,12.000 388.198,12.000 388.440 C 12.000 389.152,15.661 392.400,16.464 392.400 C 16.869 392.400,17.200 392.593,17.200 392.829 C 17.200 393.466,18.253 394.400,18.971 394.400 C 19.317 394.400,19.600 394.580,19.600 394.800 C 19.600 395.020,19.870 395.200,20.200 395.200 C 20.530 395.200,20.800 395.380,20.800 395.600 C 20.800 395.820,21.160 396.000,21.600 396.000 C 22.040 396.000,22.400 396.180,22.400 396.400 C 22.400 396.620,22.850 396.800,23.400 396.800 C 23.950 396.800,24.400 396.966,24.400 397.168 C 24.400 397.371,24.940 397.655,25.600 397.800 C 26.260 397.945,26.800 398.229,26.800 398.432 C 26.800 398.634,27.415 398.800,28.167 398.800 C 28.918 398.800,29.608 399.025,29.700 399.300 C 29.833 399.699,64.249 399.800,200.000 399.800 C 335.751 399.800,370.167 399.699,370.300 399.300 C 370.392 399.025,371.082 398.800,371.833 398.800 C 372.585 398.800,373.200 398.634,373.200 398.432 C 373.200 398.229,373.740 397.945,374.400 397.800 C 375.060 397.655,375.600 397.371,375.600 397.168 C 375.600 396.966,376.050 396.800,376.600 396.800 C 377.150 396.800,377.600 396.620,377.600 396.400 C 377.600 396.180,377.960 396.000,378.400 396.000 C 378.840 396.000,379.200 395.820,379.200 395.600 C 379.200 395.380,379.470 395.200,379.800 395.200 C 380.130 395.200,380.400 395.020,380.400 394.800 C 380.400 394.580,380.683 394.400,381.029 394.400 C 381.747 394.400,382.800 393.466,382.800 392.829 C 382.800 392.593,383.131 392.400,383.536 392.400 C 384.339 392.400,388.000 389.152,388.000 388.440 C 388.000 388.198,388.198 388.000,388.440 388.000 C 389.152 388.000,392.400 384.339,392.400 383.536 C 392.400 383.131,392.593 382.800,392.829 382.800 C 393.466 382.800,394.400 381.747,394.400 381.029 C 394.400 380.683,394.580 380.400,394.800 380.400 C 395.020 380.400,395.200 380.130,395.200 379.800 C 395.200 379.470,395.380 379.200,395.600 379.200 C 395.820 379.200,396.000 378.840,396.000 378.400 C 396.000 377.960,396.180 377.600,396.400 377.600 C 396.620 377.600,396.800 377.150,396.800 376.600 C 396.800 376.050,396.966 375.600,397.168 375.600 C 397.371 375.600,397.655 375.060,397.800 374.400 C 397.945 373.740,398.229 373.200,398.432 373.200 C 398.634 373.200,398.800 372.585,398.800 371.833 C 398.800 371.082,399.025 370.392,399.300 370.300 C 400.036 370.055,400.036 29.945,399.300 29.700 C 399.025 29.608,398.800 28.918,398.800 28.167 C 398.800 27.415,398.634 26.800,398.432 26.800 C 398.229 26.800,397.945 26.260,397.800 25.600 C 397.655 24.940,397.371 24.400,397.168 24.400 C 396.966 24.400,396.800 23.950,396.800 23.400 C 396.800 22.850,396.620 22.400,396.400 22.400 C 396.180 22.400,396.000 22.040,396.000 21.600 C 396.000 21.160,395.820 20.800,395.600 20.800 C 395.380 20.800,395.200 20.530,395.200 20.200 C 395.200 19.870,395.020 19.600,394.800 19.600 C 394.580 19.600,394.400 19.317,394.400 18.971 C 394.400 18.253,393.466 17.200,392.829 17.200 C 392.593 17.200,392.400 16.869,392.400 16.464 C 392.400 15.661,389.152 12.000,388.440 12.000 C 388.198 12.000,388.000 11.814,388.000 11.587 C 388.000 11.049,385.351 8.400,384.813 8.400 C 384.586 8.400,384.400 8.220,384.400 8.000 C 384.400 7.780,384.040 7.600,383.600 7.600 C 383.160 7.600,382.800 7.407,382.800 7.171 C 382.800 6.534,381.747 5.600,381.029 5.600 C 380.683 5.600,380.400 5.420,380.400 5.200 C 380.400 4.980,380.130 4.800,379.800 4.800 C 379.470 4.800,379.200 4.620,379.200 4.400 C 379.200 4.180,378.840 4.000,378.400 4.000 C 377.960 4.000,377.600 3.820,377.600 3.600 C 377.600 3.380,377.150 3.200,376.600 3.200 C 376.050 3.200,375.600 3.034,375.600 2.832 C 375.600 2.629,375.060 2.345,374.400 2.200 C 373.740 2.055,373.200 1.771,373.200 1.568 C 373.200 1.366,372.585 1.200,371.833 1.200 C 371.082 1.200,370.392 0.975,370.300 0.700 C 370.143 0.229,36.398 -0.174,31.300 0.291 M213.321 78.100 C 213.926 78.549,214.006 79.959,214.098 91.800 L 214.200 105.000 234.480 105.200 C 248.077 105.334,254.901 105.541,255.188 105.827 C 255.473 106.113,255.579 109.435,255.507 115.827 L 255.400 125.400 234.800 125.600 L 214.200 125.800 214.200 153.200 L 214.200 180.600 230.000 180.800 C 248.181 181.030,247.334 180.860,251.602 185.150 C 255.012 188.577,258.874 195.169,260.419 200.200 C 260.690 201.080,261.045 202.160,261.210 202.600 C 264.596 211.660,266.592 231.528,265.489 245.200 C 263.881 265.143,258.803 278.356,250.568 284.022 C 246.893 286.551,246.888 286.551,229.800 286.786 L 214.200 287.000 214.092 296.181 C 214.013 302.914,213.853 305.446,213.492 305.675 C 212.648 306.211,197.029 306.069,196.480 305.520 C 196.135 305.175,196.000 302.480,196.000 295.920 L 196.000 286.800 174.229 286.800 C 154.970 286.800,152.385 286.727,151.829 286.171 C 151.012 285.355,150.876 267.684,151.680 266.880 C 152.042 266.518,157.564 266.400,174.080 266.400 L 196.000 266.400 196.000 237.800 L 196.000 209.200 183.884 209.200 C 170.100 209.200,168.594 208.982,164.877 206.444 C 162.793 205.022,158.021 200.152,157.640 199.059 C 157.552 198.807,157.372 198.510,157.240 198.400 C 156.635 197.896,153.905 192.599,152.757 189.700 C 152.560 189.205,152.196 188.305,151.946 187.700 C 151.697 187.095,151.350 186.240,151.175 185.800 C 150.724 184.666,149.756 181.317,149.266 179.200 C 149.037 178.210,148.738 176.950,148.602 176.400 C 144.840 161.205,146.375 134.554,151.653 123.425 C 152.064 122.559,152.400 121.614,152.400 121.325 C 152.400 121.036,152.580 120.800,152.800 120.800 C 153.020 120.800,153.200 120.533,153.200 120.208 C 153.200 118.523,157.934 112.461,161.171 110.000 C 166.500 105.949,170.388 105.200,186.090 105.200 L 196.000 105.200 196.000 91.820 C 196.000 79.499,196.055 78.407,196.700 78.032 C 197.765 77.412,212.475 77.472,213.321 78.100 M129.106 105.854 L 130.012 106.096 129.906 117.748 L 129.800 129.400 99.200 129.600 L 68.600 129.800 66.948 130.875 C 61.724 134.273,58.379 140.686,57.077 149.800 C 56.548 153.501,56.414 238.193,56.930 242.200 C 57.851 249.344,61.078 257.121,64.327 260.030 C 67.877 263.206,65.430 262.991,98.939 263.072 C 115.405 263.112,129.133 263.242,129.445 263.362 C 129.920 263.544,129.995 265.423,129.906 274.890 L 129.800 286.200 91.600 286.316 C 51.961 286.435,50.469 286.385,47.222 284.807 C 41.596 282.074,38.028 279.493,35.200 276.110 C 34.210 274.926,33.208 273.742,32.974 273.478 C 31.469 271.787,26.800 263.106,26.800 261.999 C 26.800 261.774,26.642 261.277,26.449 260.895 C 25.865 259.739,25.200 257.396,25.200 256.495 C 25.200 256.029,25.039 255.548,24.842 255.426 C 24.645 255.305,24.387 254.529,24.268 253.703 C 24.149 252.876,23.862 251.300,23.631 250.200 C 22.464 244.662,22.367 239.674,22.527 193.600 C 22.673 151.649,22.762 146.278,23.355 143.600 C 23.721 141.950,24.130 139.921,24.264 139.090 C 24.398 138.260,24.664 137.484,24.854 137.367 C 25.044 137.249,25.200 136.722,25.200 136.195 C 25.200 135.669,25.357 134.824,25.549 134.319 C 25.741 133.813,26.120 132.680,26.392 131.800 C 29.326 122.312,36.967 112.828,45.000 108.704 C 47.085 107.634,47.677 107.393,50.000 106.674 C 52.035 106.044,126.918 105.267,129.106 105.854 M185.000 126.375 C 182.680 127.435,181.603 128.722,179.543 132.895 C 179.354 133.277,179.200 133.916,179.200 134.315 C 179.200 134.714,179.053 135.211,178.873 135.420 C 178.693 135.629,178.337 136.700,178.082 137.800 C 173.876 155.941,178.107 179.256,185.838 180.533 C 188.041 180.897,194.900 180.851,195.503 180.469 C 195.900 180.216,195.984 174.450,195.903 152.975 L 195.800 125.800 191.200 125.722 C 187.477 125.659,186.295 125.783,185.000 126.375 M214.000 237.800 L 214.000 266.400 220.465 266.400 C 229.410 266.400,232.084 264.553,234.363 256.800 C 234.655 255.810,235.046 254.550,235.233 254.000 C 237.783 246.495,237.740 230.944,235.144 221.400 C 234.218 217.994,232.277 214.080,230.459 211.948 C 228.380 209.512,227.210 209.200,220.151 209.200 L 214.000 209.200 214.000 237.800 M375.920 287.280 C 376.269 287.629,376.400 290.658,376.400 298.400 C 376.400 306.142,376.269 309.171,375.920 309.520 C 375.223 310.217,272.777 310.217,272.080 309.520 C 271.396 308.836,271.396 287.964,272.080 287.280 C 272.777 286.583,375.223 286.583,375.920 287.280 " stroke="none" fill="#4373fb" fill-rule="evenodd"></path><path id="path2" d="M196.585 78.495 C 196.477 78.776,196.439 84.945,196.500 92.203 L 196.611 105.400 196.706 91.900 L 196.800 78.400 205.000 78.400 L 213.200 78.400 213.200 91.567 C 213.200 104.549,213.290 106.000,214.092 106.000 C 214.348 106.000,214.334 105.803,214.054 105.466 C 213.754 105.104,213.577 100.615,213.505 91.566 L 213.400 78.200 205.091 78.092 C 198.636 78.008,196.737 78.098,196.585 78.495 M73.530 106.300 C 83.942 106.359,100.862 106.359,111.130 106.300 C 121.399 106.240,112.880 106.192,92.200 106.192 C 71.520 106.192,63.119 106.241,73.530 106.300 M169.600 106.395 C 169.191 106.655,169.510 106.699,170.600 106.532 C 172.577 106.229,172.914 105.998,171.367 106.006 C 170.725 106.009,169.930 106.184,169.600 106.395 M129.693 117.667 C 129.622 126.074,129.480 128.782,129.100 128.935 C 128.708 129.093,128.711 129.144,129.113 129.168 C 129.973 129.221,130.017 128.553,129.900 117.394 L 129.786 106.600 129.693 117.667 M158.963 112.500 C 157.264 114.276,155.012 117.012,156.246 115.800 C 157.580 114.491,161.293 110.400,161.147 110.400 C 161.051 110.400,160.068 111.345,158.963 112.500 M154.200 118.800 C 153.859 119.460,153.669 120.000,153.779 120.000 C 153.889 120.000,154.259 119.460,154.600 118.800 C 154.941 118.140,155.131 117.600,155.021 117.600 C 154.911 117.600,154.541 118.140,154.200 118.800 M234.600 125.200 L 214.200 125.411 234.476 125.506 C 247.665 125.567,254.839 125.460,255.000 125.200 C 255.136 124.980,255.192 124.843,255.124 124.894 C 255.056 124.946,245.820 125.084,234.600 125.200 M188.517 125.497 C 190.011 125.574,192.351 125.574,193.717 125.496 C 195.082 125.418,193.860 125.355,191.000 125.355 C 188.140 125.356,187.022 125.420,188.517 125.497 M196.589 153.200 C 196.589 168.270,196.639 174.435,196.700 166.900 C 196.761 159.365,196.761 147.035,196.700 139.500 C 196.639 131.965,196.589 138.130,196.589 153.200 M213.389 153.200 C 213.389 168.270,213.439 174.435,213.500 166.900 C 213.561 159.365,213.561 147.035,213.500 139.500 C 213.439 131.965,213.389 138.130,213.389 153.200 M82.729 129.100 C 89.179 129.162,99.619 129.162,105.929 129.100 C 112.238 129.038,106.960 128.987,94.200 128.987 C 81.440 128.987,76.278 129.038,82.729 129.100 M179.781 130.837 C 179.429 131.518,179.212 132.145,179.299 132.232 C 179.386 132.319,179.756 131.762,180.122 130.995 C 180.944 129.270,180.659 129.138,179.781 130.837 M23.856 142.484 C 23.721 142.988,23.627 143.760,23.646 144.200 C 23.665 144.640,23.845 144.298,24.046 143.440 C 24.436 141.778,24.270 140.940,23.856 142.484 M147.314 143.800 C 147.317 144.900,147.395 145.303,147.487 144.695 C 147.579 144.086,147.577 143.186,147.482 142.695 C 147.387 142.203,147.311 142.700,147.314 143.800 M176.093 146.800 C 176.093 147.570,176.175 147.885,176.276 147.500 C 176.376 147.115,176.376 146.485,176.276 146.100 C 176.175 145.715,176.093 146.030,176.093 146.800 M23.309 148.000 C 23.309 148.990,23.387 149.395,23.482 148.900 C 23.578 148.405,23.578 147.595,23.482 147.100 C 23.387 146.605,23.309 147.010,23.309 148.000 M146.957 154.400 C 146.957 157.370,147.020 158.585,147.097 157.100 C 147.174 155.615,147.174 153.185,147.097 151.700 C 147.020 150.215,146.957 151.430,146.957 154.400 M175.750 153.400 C 175.751 155.820,175.816 156.758,175.896 155.485 C 175.976 154.212,175.975 152.232,175.894 151.085 C 175.814 149.938,175.749 150.980,175.750 153.400 M22.993 196.600 C 22.993 222.120,23.041 232.619,23.100 219.931 C 23.159 207.243,23.159 186.363,23.100 173.531 C 23.041 160.699,22.993 171.080,22.993 196.600 M56.193 196.600 C 56.193 221.020,56.241 230.951,56.300 218.669 C 56.359 206.387,56.359 186.407,56.300 174.269 C 56.241 162.131,56.193 172.180,56.193 196.600 M176.093 160.000 C 176.093 160.770,176.175 161.085,176.276 160.700 C 176.376 160.315,176.376 159.685,176.276 159.300 C 176.175 158.915,176.093 159.230,176.093 160.000 M147.320 164.400 C 147.320 165.610,147.395 166.105,147.487 165.500 C 147.578 164.895,147.578 163.905,147.487 163.300 C 147.395 162.695,147.320 163.190,147.320 164.400 M177.268 168.200 C 177.262 168.640,177.411 169.360,177.600 169.800 C 178.038 170.819,178.038 169.768,177.600 168.400 C 177.343 167.596,177.277 167.557,177.268 168.200 M180.559 177.000 C 180.872 177.660,181.723 178.740,182.450 179.400 L 183.771 180.600 182.385 178.968 C 181.623 178.071,180.772 176.991,180.494 176.568 C 180.216 176.146,180.245 176.340,180.559 177.000 M188.716 181.497 C 190.099 181.575,192.259 181.574,193.516 181.495 C 194.772 181.416,193.640 181.352,191.000 181.353 C 188.360 181.353,187.332 181.418,188.716 181.497 M221.926 181.500 C 226.176 181.564,233.016 181.564,237.126 181.499 C 241.237 181.434,237.760 181.381,229.400 181.381 C 221.040 181.382,217.677 181.435,221.926 181.500 M251.200 185.400 C 251.946 186.170,252.647 186.800,252.757 186.800 C 252.867 186.800,252.346 186.170,251.600 185.400 C 250.854 184.630,250.153 184.000,250.043 184.000 C 249.933 184.000,250.454 184.630,251.200 185.400 M257.234 194.200 C 257.234 194.420,257.578 195.230,258.000 196.000 C 258.422 196.770,258.766 197.220,258.766 197.000 C 258.766 196.780,258.422 195.970,258.000 195.200 C 257.578 194.430,257.234 193.980,257.234 194.200 M161.800 203.600 C 162.659 204.480,163.452 205.200,163.562 205.200 C 163.672 205.200,163.059 204.480,162.200 203.600 C 161.341 202.720,160.548 202.000,160.438 202.000 C 160.328 202.000,160.941 202.720,161.800 203.600 M261.656 206.400 C 261.656 206.730,261.811 207.360,262.000 207.800 C 262.217 208.304,262.344 208.378,262.344 208.000 C 262.344 207.670,262.189 207.040,262.000 206.600 C 261.783 206.096,261.656 206.022,261.656 206.400 M183.400 208.792 L 196.200 209.000 196.200 237.800 L 196.200 266.600 174.000 266.800 L 151.800 267.000 151.692 276.172 C 151.633 281.217,151.723 285.483,151.892 285.653 C 152.062 285.823,152.149 281.740,152.086 276.581 L 151.972 267.200 173.906 267.200 C 190.432 267.200,195.958 267.082,196.320 266.720 C 197.014 266.026,197.014 209.574,196.320 208.880 C 195.963 208.523,192.607 208.423,183.220 208.492 L 170.600 208.583 183.400 208.792 M213.680 208.880 C 212.986 209.574,212.986 266.026,213.680 266.720 C 214.020 267.060,215.976 267.175,220.380 267.115 L 226.600 267.031 220.200 266.815 L 213.800 266.600 213.800 237.800 L 213.800 209.000 220.000 208.784 L 226.200 208.568 220.180 208.484 C 215.932 208.425,214.019 208.541,213.680 208.880 M230.216 211.200 C 231.087 212.190,232.123 213.450,232.517 214.000 C 233.210 214.966,233.211 214.956,232.527 213.693 C 232.138 212.974,231.102 211.714,230.225 210.893 L 228.631 209.400 230.216 211.200 M264.093 219.200 C 264.093 219.970,264.175 220.285,264.276 219.900 C 264.376 219.515,264.376 218.885,264.276 218.500 C 264.175 218.115,264.093 218.430,264.093 219.200 M264.934 228.000 C 264.934 229.650,265.005 230.325,265.091 229.500 C 265.178 228.675,265.178 227.325,265.091 226.500 C 265.005 225.675,264.934 226.350,264.934 228.000 M237.293 230.000 C 237.293 230.770,237.375 231.085,237.476 230.700 C 237.576 230.315,237.576 229.685,237.476 229.300 C 237.375 228.915,237.293 229.230,237.293 230.000 M237.748 238.000 C 237.748 240.310,237.814 241.255,237.895 240.100 C 237.976 238.945,237.976 237.055,237.895 235.900 C 237.814 234.745,237.748 235.690,237.748 238.000 M264.931 244.200 C 264.933 245.740,265.005 246.321,265.092 245.491 C 265.179 244.661,265.177 243.401,265.089 242.691 C 265.000 241.981,264.929 242.660,264.931 244.200 M23.309 244.800 C 23.309 245.790,23.387 246.195,23.482 245.700 C 23.578 245.205,23.578 244.395,23.482 243.900 C 23.387 243.405,23.309 243.810,23.309 244.800 M57.256 247.200 C 57.256 247.530,57.411 248.160,57.600 248.600 C 57.817 249.104,57.944 249.178,57.944 248.800 C 57.944 248.470,57.789 247.840,57.600 247.400 C 57.383 246.896,57.256 246.822,57.256 247.200 M236.250 251.250 C 236.109 251.953,236.069 252.602,236.159 252.692 C 236.250 252.783,236.448 252.291,236.600 251.600 C 236.752 250.909,236.793 250.259,236.691 250.158 C 236.589 250.056,236.391 250.547,236.250 251.250 M62.400 258.925 C 62.400 258.994,62.985 259.579,63.700 260.225 L 65.000 261.400 63.825 260.100 C 62.730 258.888,62.400 258.616,62.400 258.925 M262.846 259.667 C 262.821 260.034,262.696 260.664,262.570 261.067 C 262.352 261.762,262.363 261.763,262.797 261.087 C 263.048 260.696,263.173 260.066,263.073 259.687 C 262.911 259.068,262.888 259.066,262.846 259.667 M65.421 261.634 C 65.695 262.077,68.016 263.318,68.209 263.124 C 68.284 263.050,67.635 262.600,66.768 262.125 C 65.900 261.650,65.294 261.429,65.421 261.634 M81.300 263.900 C 86.965 263.962,96.235 263.962,101.900 263.900 C 107.565 263.837,102.930 263.786,91.600 263.786 C 80.270 263.786,75.635 263.837,81.300 263.900 M129.113 263.901 C 129.513 264.184,129.601 266.641,129.513 275.112 C 129.451 281.079,129.538 285.823,129.707 285.654 C 130.345 285.014,129.858 263.882,129.200 263.703 C 128.743 263.578,128.722 263.625,129.113 263.901 M258.672 272.619 C 257.732 274.589,257.864 274.924,258.847 273.062 C 259.293 272.216,259.587 271.454,259.501 271.367 C 259.414 271.281,259.041 271.844,258.672 272.619 M36.600 277.200 C 37.683 278.300,38.660 279.200,38.770 279.200 C 38.880 279.200,38.083 278.300,37.000 277.200 C 35.917 276.100,34.940 275.200,34.830 275.200 C 34.720 275.200,35.517 276.100,36.600 277.200 M252.800 281.400 C 251.828 282.390,251.123 283.200,251.233 283.200 C 251.343 283.200,252.228 282.390,253.200 281.400 C 254.172 280.410,254.877 279.600,254.767 279.600 C 254.657 279.600,253.772 280.410,252.800 281.400 M163.728 286.300 C 169.849 286.362,179.749 286.362,185.728 286.300 C 191.708 286.237,186.700 286.187,174.600 286.187 C 162.500 286.187,157.608 286.238,163.728 286.300 M213.664 286.523 C 213.175 287.113,212.805 305.757,213.292 305.268 C 213.453 305.107,213.633 300.841,213.692 295.788 L 213.800 286.600 228.600 286.393 L 243.400 286.185 228.749 286.093 C 217.080 286.019,214.010 286.107,213.664 286.523 M196.588 295.967 C 196.598 303.947,196.689 305.358,197.200 305.497 C 197.636 305.616,197.666 305.566,197.308 305.312 C 196.949 305.057,196.783 302.478,196.696 295.781 L 196.577 286.600 196.588 295.967 M272.480 287.680 C 271.939 288.221,271.766 309.008,272.300 309.339 C 272.465 309.441,272.549 304.752,272.487 298.919 C 272.406 291.340,272.506 288.154,272.836 287.757 C 273.402 287.075,273.141 287.019,272.480 287.680 M299.131 287.500 C 313.283 287.558,336.323 287.558,350.331 287.500 C 364.339 287.442,352.760 287.394,324.600 287.394 C 296.440 287.394,284.979 287.442,299.131 287.500 M375.775 298.400 C 375.775 304.230,375.831 306.615,375.899 303.700 C 375.967 300.785,375.967 296.015,375.899 293.100 C 375.831 290.185,375.775 292.570,375.775 298.400 " stroke="none" fill="#28479c" fill-rule="evenodd"></path><path id="path3" d="M196.794 91.700 C 196.791 99.015,196.647 105.222,196.474 105.494 C 196.239 105.864,193.145 106.017,184.180 106.103 L 172.200 106.218 184.600 106.209 L 197.000 106.200 197.200 92.600 L 197.400 79.000 205.100 78.891 L 212.800 78.783 212.800 91.959 C 212.800 99.205,212.909 105.419,213.043 105.767 C 213.260 106.333,215.468 106.400,233.857 106.400 L 254.428 106.400 254.314 115.800 C 254.240 121.940,254.339 125.154,254.600 125.067 C 255.242 124.853,255.346 106.740,254.708 106.334 C 254.428 106.157,245.084 106.009,233.943 106.006 C 215.843 106.001,213.660 105.933,213.443 105.367 C 213.309 105.019,213.200 98.809,213.200 91.567 L 213.200 78.400 205.000 78.400 L 196.800 78.400 196.794 91.700 M53.000 106.679 C 45.041 107.735,36.426 114.076,31.368 122.600 C 28.937 126.697,25.372 135.515,25.722 136.565 C 25.801 136.804,26.346 135.462,26.932 133.581 C 30.876 120.928,39.296 111.322,49.412 107.934 L 52.200 107.000 90.600 107.000 L 129.000 107.000 129.000 117.800 L 129.000 128.600 123.000 128.816 L 117.000 129.033 122.667 129.116 C 125.784 129.162,128.619 129.091,128.967 128.957 C 129.523 128.744,129.600 127.362,129.600 117.557 L 129.600 106.400 91.900 106.460 C 71.165 106.493,53.660 106.591,53.000 106.679 M169.200 106.686 C 167.132 107.052,162.387 109.671,160.247 111.626 C 139.652 130.449,144.351 195.900,167.100 207.071 L 169.400 208.200 182.584 208.321 C 191.192 208.399,195.947 208.590,196.284 208.870 C 197.011 209.473,197.047 265.993,196.320 266.720 C 195.958 267.082,190.434 267.200,173.913 267.200 L 151.985 267.200 152.093 276.500 L 152.200 285.800 174.179 285.903 C 191.151 285.983,196.229 286.120,196.472 286.503 C 196.646 286.777,196.791 291.092,196.794 296.092 L 196.800 305.185 197.700 305.406 C 198.195 305.528,201.840 305.576,205.800 305.514 L 213.000 305.400 213.108 296.232 C 213.177 290.290,213.371 286.876,213.657 286.532 C 214.010 286.106,217.143 286.000,229.303 286.000 C 245.791 286.000,246.398 285.934,249.800 283.788 C 259.016 277.972,264.540 261.645,264.948 239.012 C 265.028 234.605,265.032 232.530,264.959 234.400 C 263.992 258.966,260.387 272.823,252.915 280.698 C 248.468 285.384,247.457 285.590,228.914 285.596 C 214.213 285.600,213.612 285.630,213.214 286.374 C 212.964 286.842,212.800 290.719,212.800 296.182 L 212.800 305.217 205.100 305.109 L 197.400 305.000 197.293 295.743 C 197.211 288.655,197.061 286.383,196.656 286.046 C 196.289 285.742,189.445 285.575,174.363 285.503 L 152.600 285.400 152.600 276.600 L 152.600 267.800 174.363 267.697 C 189.625 267.624,196.287 267.460,196.663 267.148 C 197.437 266.506,197.462 209.116,196.689 208.474 C 196.359 208.200,191.435 208.002,182.789 207.915 C 167.998 207.765,168.317 207.816,164.656 205.022 C 154.294 197.112,147.625 177.214,147.625 154.200 C 147.625 127.327,155.965 110.002,170.400 106.885 C 172.165 106.504,171.166 106.338,169.200 106.686 M183.346 125.967 C 177.624 129.457,173.546 148.020,175.617 161.154 C 176.646 167.677,176.959 169.176,177.865 171.914 C 180.565 180.073,182.566 181.692,190.243 181.928 C 193.725 182.035,195.774 181.935,196.346 181.629 L 197.205 181.169 197.103 153.318 C 197.013 128.969,196.925 125.444,196.400 125.283 C 195.916 125.135,195.896 125.202,196.300 125.630 C 197.141 126.522,197.017 180.126,196.171 180.971 C 194.509 182.634,184.951 181.611,182.563 179.514 C 172.211 170.424,174.333 127.547,185.238 125.490 C 186.002 125.346,186.035 125.298,185.400 125.256 C 184.960 125.227,184.036 125.547,183.346 125.967 M213.067 125.467 C 212.419 126.114,212.772 180.715,213.429 181.371 C 213.978 181.921,215.968 182.000,229.214 182.000 C 243.360 182.000,244.511 182.053,246.485 182.795 C 251.106 184.531,256.045 191.320,259.292 200.400 C 261.669 207.046,263.625 217.038,264.343 226.200 C 264.654 230.167,264.694 230.322,264.744 227.775 C 265.030 213.328,258.618 193.159,251.400 185.803 C 247.330 181.655,248.230 181.831,229.885 181.600 C 216.323 181.430,213.914 181.311,213.591 180.800 C 212.800 179.547,213.099 126.098,213.900 125.632 C 214.493 125.287,214.503 125.222,213.967 125.212 C 213.618 125.205,213.213 125.320,213.067 125.467 M80.928 128.700 C 86.168 128.763,94.628 128.763,99.728 128.700 C 104.827 128.636,100.540 128.585,90.200 128.585 C 79.860 128.585,75.687 128.637,80.928 128.700 M67.489 129.357 C 61.867 131.847,55.862 143.014,56.066 150.600 C 56.098 151.776,56.180 152.105,56.267 151.400 C 57.765 139.136,62.952 130.548,69.656 129.231 C 71.331 128.901,71.345 128.887,70.000 128.876 C 69.230 128.870,68.100 129.086,67.489 129.357 M25.249 137.600 C 25.216 137.930,25.089 138.650,24.967 139.200 C 24.775 140.064,24.807 140.103,25.199 139.488 C 25.448 139.097,25.575 138.377,25.481 137.888 C 25.386 137.400,25.282 137.270,25.249 137.600 M23.965 143.898 C 23.500 146.778,23.400 156.207,23.400 197.000 L 23.400 246.600 24.327 250.994 C 24.837 253.410,25.355 255.480,25.478 255.594 C 25.743 255.838,25.553 254.655,24.546 249.800 C 23.548 244.984,23.381 150.980,24.359 144.492 C 24.667 142.453,24.831 140.697,24.724 140.591 C 24.617 140.484,24.275 141.972,23.965 143.898 M55.793 196.400 C 55.793 220.490,55.841 230.345,55.900 218.300 C 55.959 206.255,55.959 186.545,55.900 174.500 C 55.841 162.455,55.793 172.310,55.793 196.400 M213.214 208.774 C 212.940 209.286,212.800 219.090,212.800 237.800 C 212.800 256.510,212.940 266.314,213.214 266.826 C 213.863 268.038,225.580 267.990,228.186 266.765 C 241.815 260.358,241.761 215.819,228.116 208.859 C 225.667 207.610,213.873 207.542,213.214 208.774 M226.911 208.824 C 241.175 212.785,241.532 262.459,227.326 266.715 C 225.142 267.369,214.333 267.373,213.680 266.720 C 212.986 266.026,212.986 209.574,213.680 208.880 C 214.291 208.269,224.753 208.225,226.911 208.824 M56.049 242.354 C 55.973 245.095,57.509 250.510,59.638 255.000 C 61.441 258.803,63.982 261.539,67.161 263.100 L 69.400 264.200 89.400 264.223 L 109.400 264.246 89.600 264.006 C 68.608 263.753,68.388 263.732,65.494 261.726 C 61.206 258.755,57.682 251.441,56.439 242.934 C 56.108 240.670,56.096 240.653,56.049 242.354 M25.612 256.400 C 25.612 256.730,25.787 257.270,26.000 257.600 C 26.345 258.133,26.388 258.133,26.388 257.600 C 26.388 257.270,26.213 256.730,26.000 256.400 C 25.655 255.867,25.612 255.867,25.612 256.400 M26.400 258.791 C 26.400 261.802,32.221 272.162,36.376 276.547 C 39.484 279.827,46.386 284.547,47.072 283.861 C 47.179 283.754,46.448 283.305,45.447 282.862 C 38.213 279.662,30.787 270.578,27.616 261.048 C 26.796 258.584,26.400 257.849,26.400 258.791 M120.400 263.988 L 129.000 264.200 129.000 274.800 L 129.000 285.400 92.863 285.502 C 56.592 285.605,53.777 285.522,48.400 284.202 C 47.603 284.006,47.648 284.072,48.619 284.525 C 51.613 285.921,55.811 286.054,93.000 285.926 L 129.400 285.800 129.507 275.028 C 129.589 266.676,129.499 264.183,129.107 263.934 C 128.828 263.757,124.820 263.649,120.200 263.694 L 111.800 263.776 120.400 263.988 M272.759 287.849 C 272.544 288.109,272.432 292.745,272.493 298.849 L 272.600 309.400 324.000 309.400 L 375.400 309.400 375.506 298.503 L 375.613 287.606 324.372 287.503 C 286.852 287.428,273.032 287.520,272.759 287.849 M375.200 298.602 L 375.200 309.203 324.100 309.102 L 273.000 309.000 272.893 298.500 L 272.787 288.000 323.993 288.000 L 375.200 288.000 375.200 298.602 " stroke="none" fill="#1c3472" fill-rule="evenodd"></path><path id="path4" d="M201.121 77.899 C 203.388 77.970,206.988 77.970,209.121 77.898 C 211.255 77.826,209.400 77.768,205.000 77.768 C 200.600 77.768,198.855 77.827,201.121 77.899 M196.267 78.267 C 196.120 78.413,196.000 84.533,196.000 91.867 L 196.000 105.200 185.700 105.240 C 180.035 105.261,174.410 105.416,173.200 105.583 C 171.857 105.769,175.750 105.907,183.200 105.938 C 189.910 105.965,195.620 105.848,195.890 105.677 C 196.265 105.438,196.937 77.998,196.567 78.000 C 196.548 78.000,196.413 78.120,196.267 78.267 M213.511 91.491 C 213.585 100.501,213.766 105.118,214.060 105.472 C 214.412 105.897,218.479 106.000,234.863 106.000 L 255.227 106.000 255.114 115.762 C 255.051 121.131,255.135 125.441,255.300 125.339 C 255.853 124.996,255.660 106.086,255.100 105.724 C 254.825 105.546,245.510 105.310,234.400 105.200 L 214.200 105.000 214.094 91.814 C 214.036 84.562,213.856 78.496,213.694 78.334 C 213.532 78.172,213.450 84.093,213.511 91.491 M99.472 105.900 C 104.792 105.963,113.612 105.963,119.072 105.900 C 124.533 105.837,120.180 105.785,109.400 105.785 C 98.620 105.785,94.153 105.837,99.472 105.900 M51.400 106.400 C 50.336 106.857,52.003 106.857,53.800 106.400 L 55.000 106.095 53.600 106.075 C 52.830 106.065,51.840 106.211,51.400 106.400 M168.000 106.400 C 167.503 106.721,167.538 106.788,168.200 106.788 C 168.640 106.788,169.270 106.613,169.600 106.400 C 170.097 106.079,170.062 106.012,169.400 106.012 C 168.960 106.012,168.330 106.187,168.000 106.400 M45.200 108.487 C 40.723 111.112,36.400 114.451,36.400 115.283 C 36.400 115.456,37.075 114.953,37.900 114.164 C 39.799 112.349,42.338 110.573,45.400 108.916 C 46.720 108.202,47.530 107.629,47.200 107.642 C 46.870 107.655,45.970 108.036,45.200 108.487 M162.900 108.726 C 161.965 109.312,161.200 109.937,161.200 110.115 C 161.200 110.361,164.000 108.681,165.167 107.735 C 165.860 107.173,164.272 107.867,162.900 108.726 M159.178 111.700 C 158.420 112.415,157.539 113.360,157.221 113.800 C 156.903 114.240,157.578 113.707,158.721 112.615 C 159.864 111.523,160.800 110.578,160.800 110.515 C 160.800 110.240,160.474 110.478,159.178 111.700 M154.700 117.232 C 153.875 118.565,153.202 119.868,153.205 120.128 C 153.207 120.387,153.654 119.822,154.198 118.872 C 154.741 117.921,155.561 116.616,156.020 115.972 C 156.479 115.327,156.707 114.802,156.527 114.804 C 156.347 114.807,155.525 115.899,154.700 117.232 M34.877 116.730 C 33.124 118.774,30.305 122.838,30.502 123.035 C 30.611 123.145,31.060 122.626,31.498 121.882 C 32.299 120.525,32.822 119.836,34.953 117.329 C 35.588 116.583,36.036 115.903,35.950 115.817 C 35.864 115.731,35.381 116.142,34.877 116.730 M151.200 124.036 C 151.200 124.130,150.660 125.794,150.000 127.734 C 149.340 129.675,148.821 131.653,148.846 132.131 C 148.890 132.939,148.906 132.944,149.081 132.200 C 149.185 131.760,149.799 129.800,150.446 127.844 C 151.093 125.889,151.527 124.194,151.411 124.078 C 151.295 123.962,151.200 123.943,151.200 124.036 M184.039 126.433 C 182.450 127.401,181.420 128.526,180.586 130.200 C 180.258 130.860,180.216 131.057,180.494 130.638 C 181.817 128.645,183.523 127.027,184.989 126.374 C 185.875 125.979,186.330 125.644,186.000 125.630 C 185.670 125.615,184.787 125.976,184.039 126.433 M195.906 152.873 C 195.989 174.507,195.907 180.212,195.506 180.467 C 194.898 180.852,188.043 180.897,185.822 180.531 C 184.663 180.339,183.769 179.782,182.457 178.435 C 181.474 177.426,180.872 176.980,181.120 177.445 C 182.750 180.509,184.985 181.292,191.600 181.120 L 196.200 181.000 196.303 153.300 C 196.359 138.065,196.269 125.600,196.103 125.600 C 195.936 125.600,195.847 137.873,195.906 152.873 M213.697 153.300 L 213.800 181.000 229.000 181.010 L 244.200 181.020 229.200 180.810 L 214.200 180.600 214.200 153.100 C 214.200 137.975,214.064 125.600,213.897 125.600 C 213.731 125.600,213.641 138.065,213.697 153.300 M27.805 128.139 C 27.472 128.942,26.930 130.252,26.600 131.049 C 26.270 131.846,26.006 132.791,26.014 133.149 C 26.022 133.507,26.368 132.857,26.783 131.703 C 27.198 130.550,27.823 129.036,28.171 128.339 C 28.519 127.641,28.715 126.982,28.607 126.874 C 28.499 126.766,28.138 127.335,27.805 128.139 M99.533 129.195 C 82.886 129.308,69.176 129.490,69.066 129.600 C 68.956 129.710,82.483 129.750,99.125 129.688 C 117.973 129.618,129.531 129.429,129.772 129.188 C 129.985 128.975,130.079 128.843,129.980 128.895 C 129.881 128.947,116.180 129.082,99.533 129.195 M65.567 131.365 C 62.972 133.270,58.797 139.393,58.801 141.287 C 58.802 141.569,59.402 140.610,60.135 139.155 C 62.361 134.735,64.401 132.263,66.900 130.955 C 67.968 130.396,68.312 129.990,67.700 130.010 C 67.535 130.015,66.575 130.625,65.567 131.365 M148.273 133.753 C 148.123 134.145,148.018 135.036,148.040 135.733 C 148.079 136.967,148.090 136.959,148.449 135.427 C 148.845 133.737,148.724 132.579,148.273 133.753 M178.688 134.133 C 178.242 135.266,178.315 135.845,178.838 135.322 C 179.078 135.082,179.208 134.551,179.126 134.142 C 178.982 133.426,178.966 133.426,178.688 134.133 M177.685 137.800 C 176.675 142.332,176.403 144.134,176.460 145.920 C 176.498 147.105,176.571 147.356,176.659 146.600 C 177.068 143.073,177.697 139.247,178.057 138.097 C 178.281 137.380,178.389 136.570,178.297 136.297 C 178.206 136.023,177.930 136.700,177.685 137.800 M24.667 137.467 C 24.520 137.613,24.411 138.108,24.425 138.567 C 24.449 139.333,24.482 139.323,24.834 138.442 C 25.226 137.463,25.144 136.989,24.667 137.467 M147.489 138.400 C 147.336 138.950,147.228 140.030,147.249 140.800 C 147.286 142.146,147.301 142.131,147.647 140.400 C 148.051 138.377,147.928 136.823,147.489 138.400 M23.800 141.200 C 23.648 141.891,23.614 142.547,23.724 142.657 C 23.834 142.767,24.048 142.291,24.200 141.600 C 24.352 140.909,24.386 140.253,24.276 140.143 C 24.166 140.033,23.952 140.509,23.800 141.200 M146.659 145.700 C 146.331 148.433,146.381 160.879,146.730 163.200 C 146.878 164.190,147.004 160.185,147.009 154.300 C 147.018 142.586,147.022 142.679,146.659 145.700 M22.933 146.266 C 22.373 150.188,22.538 246.380,23.107 247.800 C 23.576 248.972,23.582 248.962,23.342 247.400 C 22.861 244.269,22.723 153.248,23.192 148.651 C 23.665 144.012,23.488 142.378,22.933 146.266 M57.400 145.600 C 57.248 146.291,57.214 146.947,57.324 147.057 C 57.434 147.167,57.648 146.691,57.800 146.000 C 57.952 145.309,57.986 144.653,57.876 144.543 C 57.766 144.433,57.552 144.909,57.400 145.600 M176.158 153.400 C 176.158 156.480,176.221 157.687,176.297 156.082 C 176.373 154.478,176.373 151.958,176.296 150.482 C 176.219 149.007,176.157 150.320,176.158 153.400 M56.619 150.518 C 56.445 151.793,56.402 152.935,56.522 153.055 C 56.822 153.355,57.317 149.871,57.106 148.947 C 57.012 148.536,56.793 149.243,56.619 150.518 M176.468 161.200 C 176.434 162.190,176.840 164.890,177.369 167.200 C 178.407 171.729,179.131 173.924,179.175 172.674 C 179.189 172.274,179.030 171.629,178.822 171.240 C 178.429 170.506,176.939 163.251,176.677 160.800 C 176.547 159.578,176.520 159.628,176.468 161.200 M147.274 168.000 C 147.264 168.990,147.411 170.160,147.600 170.600 C 148.075 171.705,148.088 170.049,147.623 167.800 L 147.292 166.200 147.274 168.000 M148.075 173.200 C 148.065 173.970,148.211 174.960,148.400 175.400 C 148.857 176.464,148.857 174.797,148.400 173.000 L 148.095 171.800 148.075 173.200 M148.840 177.000 C 148.831 177.440,149.180 179.060,149.615 180.600 C 150.050 182.140,150.518 183.899,150.655 184.508 C 150.792 185.118,151.079 185.725,151.295 185.858 C 151.538 186.009,151.569 185.743,151.376 185.150 C 151.206 184.628,150.569 182.400,149.962 180.200 C 149.354 178.000,148.849 176.560,148.840 177.000 M245.864 181.774 C 246.779 182.060,248.084 182.690,248.764 183.174 C 249.444 183.658,250.000 183.891,250.000 183.691 C 250.000 183.124,246.203 181.197,245.146 181.227 C 244.479 181.246,244.691 181.407,245.864 181.774 M250.400 184.125 C 250.400 184.194,250.985 184.779,251.700 185.425 L 253.000 186.600 251.825 185.300 C 250.730 184.088,250.400 183.816,250.400 184.125 M254.460 189.193 C 255.388 190.509,256.223 191.510,256.315 191.418 C 256.544 191.189,253.479 186.811,253.086 186.805 C 252.914 186.802,253.532 187.877,254.460 189.193 M153.218 190.676 C 153.208 190.937,153.848 192.377,154.641 193.876 C 155.433 195.374,156.288 197.004,156.541 197.497 C 156.793 197.990,157.153 198.395,157.340 198.397 C 157.526 198.399,157.269 197.725,156.768 196.900 C 156.267 196.075,155.267 194.230,154.547 192.800 C 153.826 191.370,153.229 190.414,153.218 190.676 M257.830 194.856 C 258.213 195.595,259.030 197.550,259.644 199.200 C 260.258 200.850,260.770 201.903,260.781 201.540 C 260.806 200.687,258.041 194.073,257.526 193.754 C 257.311 193.621,257.447 194.117,257.830 194.856 M157.618 199.000 C 157.624 199.454,159.985 202.150,160.191 201.938 C 160.265 201.862,159.715 201.080,158.969 200.200 C 158.222 199.320,157.615 198.780,157.618 199.000 M260.828 202.676 C 260.918 203.715,261.544 204.596,261.572 203.724 C 261.587 203.242,261.420 202.736,261.200 202.600 C 260.980 202.464,260.813 202.498,260.828 202.676 M161.800 203.966 C 162.578 204.861,164.800 206.598,164.800 206.312 C 164.800 206.234,163.945 205.467,162.900 204.608 C 161.855 203.749,161.360 203.460,161.800 203.966 M261.634 205.200 C 261.646 205.530,261.811 206.160,262.000 206.600 L 262.344 207.400 262.366 206.600 C 262.378 206.160,262.213 205.530,262.000 205.200 C 261.655 204.667,261.615 204.667,261.634 205.200 M165.998 207.153 C 167.049 207.994,170.270 209.063,170.640 208.693 C 170.759 208.574,170.259 208.347,169.529 208.189 C 168.798 208.031,167.480 207.554,166.600 207.129 L 165.000 206.355 165.998 207.153 M262.549 208.800 C 263.954 216.314,264.335 218.027,264.365 216.982 C 264.402 215.682,262.865 207.935,262.503 207.600 C 262.384 207.490,262.405 208.030,262.549 208.800 M183.600 209.097 L 196.000 209.211 196.000 237.806 L 196.000 266.400 174.080 266.400 C 157.564 266.400,152.042 266.518,151.680 266.880 C 150.876 267.684,151.012 285.355,151.829 286.171 C 152.385 286.727,154.970 286.800,174.229 286.800 L 196.000 286.800 196.000 295.920 C 196.000 302.480,196.135 305.175,196.480 305.520 C 197.029 306.069,212.648 306.211,213.492 305.675 C 213.853 305.446,214.013 302.914,214.092 296.181 L 214.200 287.000 229.867 286.800 C 238.484 286.690,245.624 286.510,245.734 286.400 C 245.974 286.160,214.815 286.358,214.107 286.600 C 213.740 286.726,213.587 289.145,213.507 296.085 L 213.400 305.400 205.000 305.400 L 196.600 305.400 196.493 295.900 L 196.386 286.400 174.669 286.400 C 157.920 286.400,152.796 286.286,152.269 285.900 C 151.652 285.449,151.595 284.495,151.692 276.200 L 151.800 267.000 174.000 266.800 L 196.200 266.600 196.200 237.800 L 196.200 209.000 183.700 208.991 L 171.200 208.983 183.600 209.097 M213.784 209.300 C 213.679 209.575,213.640 222.580,213.696 238.200 L 213.800 266.600 220.300 266.615 L 226.801 266.631 220.400 266.505 L 214.000 266.380 214.000 237.790 L 214.000 209.200 220.151 209.200 C 228.386 209.200,230.076 210.031,232.757 215.400 C 233.266 216.418,233.775 217.158,233.890 217.044 C 234.628 216.306,229.715 210.177,227.713 209.339 C 225.954 208.603,214.063 208.570,213.784 209.300 M264.487 219.600 C 264.483 220.370,264.616 221.990,264.783 223.200 L 265.087 225.400 265.096 223.000 C 265.101 221.680,264.968 220.060,264.800 219.400 L 264.495 218.200 264.487 219.600 M234.969 220.400 C 235.770 224.694,236.607 228.081,236.722 227.493 C 236.878 226.699,235.838 221.823,235.200 220.357 L 234.783 219.400 234.969 220.400 M265.307 236.200 C 265.307 241.655,265.416 243.899,265.618 242.600 C 265.790 241.500,265.930 238.620,265.930 236.200 C 265.930 233.780,265.790 230.900,265.618 229.800 C 265.416 228.501,265.307 230.745,265.307 236.200 M237.000 237.756 C 237.000 243.012,237.125 246.612,237.277 245.756 C 237.631 243.768,237.626 232.368,237.270 230.000 C 237.122 229.010,237.000 232.500,237.000 237.756 M56.487 240.800 C 56.491 241.570,56.632 242.740,56.800 243.400 C 57.090 244.542,57.106 244.522,57.113 243.000 C 57.117 242.120,56.976 240.950,56.800 240.400 C 56.511 239.498,56.480 239.537,56.487 240.800 M57.234 246.000 C 57.246 246.330,57.411 246.960,57.600 247.400 L 57.944 248.200 57.966 247.400 C 57.978 246.960,57.813 246.330,57.600 246.000 C 57.255 245.467,57.215 245.467,57.234 246.000 M264.671 249.746 C 264.499 251.476,264.443 252.976,264.546 253.080 C 264.829 253.362,265.291 249.151,265.127 247.788 C 265.049 247.135,264.844 248.016,264.671 249.746 M235.886 250.866 C 235.494 252.700,235.085 254.650,234.978 255.200 L 234.783 256.200 235.200 255.243 C 235.817 253.825,236.881 248.911,236.731 248.172 C 236.659 247.820,236.279 249.032,235.886 250.866 M58.026 248.881 C 57.997 249.633,58.345 250.563,60.070 254.351 C 60.709 255.754,61.313 256.821,61.412 256.722 C 61.511 256.622,61.099 255.564,60.496 254.371 C 59.893 253.177,59.097 251.300,58.726 250.200 C 58.356 249.100,58.041 248.507,58.026 248.881 M23.646 250.400 C 23.627 250.950,23.787 251.670,24.000 252.000 C 24.494 252.764,24.494 251.942,24.000 250.400 L 23.680 249.400 23.646 250.400 M24.428 254.276 C 24.413 254.758,24.580 255.264,24.800 255.400 C 25.273 255.692,25.273 255.301,24.800 254.200 C 24.469 253.429,24.455 253.431,24.428 254.276 M263.678 256.772 C 263.390 258.596,263.227 260.160,263.313 260.247 C 263.571 260.504,264.507 255.049,264.347 254.219 C 264.266 253.798,263.965 254.947,263.678 256.772 M234.200 257.200 C 234.050 257.673,234.017 258.150,234.127 258.260 C 234.237 258.370,234.450 258.073,234.600 257.600 C 234.750 257.127,234.783 256.650,234.673 256.540 C 234.563 256.430,234.350 256.727,234.200 257.200 M25.212 257.200 C 25.212 257.530,25.387 258.070,25.600 258.400 C 25.945 258.933,25.988 258.933,25.988 258.400 C 25.988 258.070,25.813 257.530,25.600 257.200 C 25.255 256.667,25.212 256.667,25.212 257.200 M63.573 259.695 C 64.328 260.516,65.033 261.101,65.139 260.994 C 65.246 260.887,65.257 260.755,65.165 260.700 C 65.072 260.645,64.367 260.060,63.598 259.401 L 62.200 258.202 63.573 259.695 M232.794 260.526 C 231.663 262.792,230.175 264.495,228.400 265.558 C 226.803 266.515,227.067 266.696,228.772 265.814 C 230.518 264.912,234.503 259.570,233.890 258.956 C 233.775 258.842,233.282 259.548,232.794 260.526 M26.028 259.876 C 26.013 260.358,26.180 260.864,26.400 261.000 C 26.873 261.292,26.873 260.901,26.400 259.800 C 26.069 259.029,26.055 259.031,26.028 259.876 M262.572 261.900 C 262.438 262.505,262.146 263.597,261.924 264.327 C 261.702 265.057,261.616 265.750,261.734 265.867 C 261.928 266.061,262.276 264.988,263.021 261.900 C 263.167 261.295,263.181 260.800,263.051 260.800 C 262.921 260.800,262.706 261.295,262.572 261.900 M26.828 262.000 C 26.828 262.330,27.086 263.050,27.400 263.600 C 27.730 264.178,27.972 264.347,27.972 264.000 C 27.972 263.670,27.714 262.950,27.400 262.400 C 27.070 261.822,26.828 261.653,26.828 262.000 M67.800 262.675 C 69.104 263.463,130.401 264.240,129.618 263.458 C 129.430 263.270,116.254 263.131,100.338 263.150 C 73.910 263.182,69.848 263.068,67.400 262.225 C 66.960 262.073,67.140 262.276,67.800 262.675 M261.000 267.200 C 260.850 267.673,260.817 268.150,260.927 268.260 C 261.037 268.370,261.250 268.073,261.400 267.600 C 261.550 267.127,261.583 266.650,261.473 266.540 C 261.363 266.430,261.150 266.727,261.000 267.200 M29.645 268.206 C 30.027 269.207,32.617 273.200,32.885 273.200 C 33.049 273.200,32.463 272.086,31.583 270.725 C 29.994 268.267,29.348 267.428,29.645 268.206 M259.862 270.615 C 258.705 274.095,255.645 278.836,252.648 281.792 C 251.091 283.328,250.431 284.148,251.181 283.614 C 254.808 281.031,261.346 271.033,260.690 269.073 C 260.603 268.813,260.231 269.507,259.862 270.615 M33.657 274.243 C 35.559 277.196,43.931 284.202,44.672 283.461 C 44.783 283.350,44.273 282.951,43.537 282.575 C 41.479 281.522,37.443 278.194,35.167 275.673 C 34.037 274.423,33.358 273.779,33.657 274.243 M247.600 285.224 C 246.830 285.630,246.434 285.970,246.720 285.981 C 247.296 286.002,249.600 284.889,249.600 284.590 C 249.600 284.279,249.081 284.444,247.600 285.224 M50.000 285.693 C 51.136 286.269,129.083 286.677,129.650 286.110 C 129.821 285.939,112.464 285.800,91.080 285.800 C 69.696 285.800,51.480 285.662,50.600 285.493 C 49.143 285.213,49.090 285.231,50.000 285.693 M272.080 287.280 C 271.731 287.629,271.600 290.658,271.600 298.400 C 271.600 308.996,271.722 310.024,272.980 309.988 C 273.211 309.981,273.085 309.792,272.700 309.568 C 271.815 309.053,271.609 288.551,272.480 287.680 C 273.313 286.847,375.437 286.998,375.757 287.833 C 376.074 288.658,376.074 308.142,375.757 308.967 C 375.538 309.539,370.588 309.610,324.457 309.698 L 273.400 309.797 324.357 309.900 C 361.685 309.975,375.460 309.883,375.857 309.553 C 376.599 308.937,376.658 288.018,375.920 287.280 C 375.223 286.583,272.777 286.583,272.080 287.280 " stroke="none" fill="#345dcc" fill-rule="evenodd"></path></g></svg>